%TF.GenerationSoftware,KiCad,Pcbnew,10.0.5*%
%TF.CreationDate,2026-09-09T15:37:42-05:00*%
%TF.ProjectId,tiny,74696e79-2e6b-4696-9361-645f70636258,rev?*%
%TF.SameCoordinates,Original*%
%TF.FileFunction,Copper,L2,Bot*%
%TF.FilePolarity,Positive*%
%FSLAX46Y46*%
G04 Gerber Fmt 4.6, Leading zero omitted, Abs format (unit mm)*
G04 Created by KiCad (PCBNEW 10.0.5) date 2026-09-09 15:37:42*
%MOMM*%
%LPD*%
G01*
G04 APERTURE LIST*
%TA.AperFunction,ComponentPad*%
%ADD10C,1.600000*%
%TD*%
%TA.AperFunction,ViaPad*%
%ADD11C,0.600000*%
%TD*%
%TA.AperFunction,Conductor*%
%ADD12C,0.300000*%
%TD*%
G04 APERTURE END LIST*
D10*
%TO.P,J1,1*%
%TO.N,DATA*%
X45000000Y-38000000D03*
%TD*%
D11*
%TO.N,CLK*%
X25000000Y-20000000D03*
%TO.N,GND*%
X6000000Y-6000000D03*
%TO.N,DATA*%
X16000000Y-2000000D03*
%TD*%
%TO.N,DATA*%
D12*
X12000000Y-2000000D02*
X20000000Y-2000000D01*
%TD*%
%TA.AperFunction,Conductor*%
%TO.N,GND*%
G36*
X20047835Y-4884515D02*
G01*
X20088388Y-4911612D01*
X20115485Y-4952165D01*
X20125000Y-5000000D01*
X20125000Y-35000000D01*
X20115485Y-35047835D01*
X20088388Y-35088388D01*
X20047835Y-35115485D01*
X20000000Y-35125000D01*
X5000000Y-35125000D01*
X4952165Y-35115485D01*
X4911612Y-35088388D01*
X4884515Y-35047835D01*
X4875000Y-35000000D01*
X4875000Y-5000000D01*
X4884515Y-4952165D01*
X4911612Y-4911612D01*
X4952165Y-4884515D01*
X5000000Y-4875000D01*
X20000000Y-4875000D01*
X20047835Y-4884515D01*
G37*
%TD.AperFunction*%
%TD*%
%TA.AperFunction,Conductor*%
%TO.N,GND*%
G36*
X45047835Y-4884515D02*
G01*
X45088388Y-4911612D01*
X45115485Y-4952165D01*
X45125000Y-5000000D01*
X45125000Y-35000000D01*
X45115485Y-35047835D01*
X45088388Y-35088388D01*
X45047835Y-35115485D01*
X45000000Y-35125000D01*
X30000000Y-35125000D01*
X29952165Y-35115485D01*
X29911612Y-35088388D01*
X29884515Y-35047835D01*
X29875000Y-35000000D01*
X29875000Y-5000000D01*
X29884515Y-4952165D01*
X29911612Y-4911612D01*
X29952165Y-4884515D01*
X30000000Y-4875000D01*
X45000000Y-4875000D01*
X45047835Y-4884515D01*
G37*
%TD.AperFunction*%
%TD*%
M02*
